<svg width="426" height="133" viewBox="0 0 426 133" fill="none" xmlns="http://www.w3.org/2000/svg">
<path d="M0 78.6503V3.58779H3.81674V78.6503H0ZM7.63348 78.6503V3.58779H19.0837V78.6503H7.63348ZM30.5339 78.6503V3.58779H38.1674V78.6503H30.5339ZM11.5774 89.7189H14.7581L27.0988 111.602V89.7189H30.7884V90.1005C30.5339 90.2702 30.4067 90.4822 30.4067 90.7367C30.3219 90.9063 30.2795 91.288 30.2795 91.8817V119.235H27.735L14.6308 96.0801V119.235H11.5774V89.7189ZM41.9941 78.6503V3.58779H45.8108V78.6503H41.9941ZM57.261 78.6503V3.58779H64.8945V78.6503H57.261ZM68.7112 78.6503V3.58779H72.528V78.6503H68.7112ZM53.9532 89.7189H72.0191V92.645H57.0066V102.314H69.4746V105.368H57.0066V116.309H71.8919V119.235H53.9532V89.7189ZM83.9881 78.6503V3.58779H87.8049V78.6503H83.9881ZM99.2551 78.6503V3.58779H106.889V78.6503H99.2551ZM110.705 78.6503V3.58779H114.522V78.6503H110.705ZM95.9473 89.7189H114.013V92.645H99.0006V102.314H111.469V105.368H99.0006V116.309H113.886V119.235H95.9473V89.7189ZM125.982 78.6503V3.58779H129.799V78.6503H125.982ZM133.616 78.6503V3.58779H141.249V78.6503H133.616ZM152.699 78.6503V3.58779H156.516V78.6503H152.699ZM137.687 89.7189H144.557C147.017 89.7189 148.925 90.0581 150.282 90.7367C151.724 91.4152 152.954 92.433 153.972 93.7901C155.922 96.3346 156.898 99.9393 156.898 104.604C156.728 109.439 155.626 113.086 153.59 115.545C151.554 118.09 148.374 119.32 144.048 119.235H137.687V89.7189ZM143.794 116.69C150.325 116.69 153.59 112.747 153.59 104.859C153.59 100.872 152.869 97.8188 151.427 95.6984C149.9 93.578 147.526 92.5178 144.303 92.5178H140.867V116.69H143.794ZM167.976 78.6503V3.58779H175.61V78.6503H167.976ZM179.426 78.6503V3.58779H190.877V78.6503H179.426ZM194.693 78.6503V3.58779H198.51V78.6503H194.693ZM188.841 119.744C185.024 119.744 181.929 118.472 179.554 115.927L181.335 113.001L181.462 112.619L181.844 112.747C181.844 112.831 181.886 113.001 181.971 113.255C181.971 113.425 182.056 113.637 182.225 113.892C182.31 114.061 182.48 114.231 182.734 114.4C184.515 115.927 186.721 116.69 189.35 116.69C191.046 116.69 192.488 116.224 193.676 115.291C194.863 114.273 195.457 113.086 195.457 111.729C195.457 110.796 195.245 109.99 194.821 109.311C194.481 108.718 193.845 108.124 192.912 107.53C191.979 106.937 190.537 106.216 188.587 105.368C185.703 104.265 183.625 102.993 182.353 101.551C181.165 100.109 180.572 98.4974 180.572 96.7162C180.572 94.511 181.377 92.7299 182.989 91.3728C184.6 90.0157 186.763 89.3372 189.477 89.3372C191.089 89.3372 192.615 89.6765 194.057 90.355C195.414 91.0335 196.644 91.9241 197.747 93.0267L195.584 95.9529L195.33 95.6984C195.33 95.6136 195.287 95.4864 195.202 95.3168C195.202 95.0623 195.118 94.8503 194.948 94.6806C194.863 94.4262 194.693 94.2141 194.439 94.0445C193.76 93.366 192.955 92.8571 192.022 92.5178C191.174 92.2634 190.156 92.1361 188.968 92.1361C187.442 92.1361 186.254 92.5602 185.406 93.4084C184.473 94.2566 184.007 95.2743 184.007 96.4618C184.007 97.3948 184.176 98.2005 184.515 98.879C184.94 99.5576 185.66 100.194 186.678 100.787C187.696 101.466 189.223 102.187 191.258 102.95C194.057 104.138 196.008 105.325 197.111 106.513C198.129 107.785 198.637 109.354 198.637 111.22C198.637 112.662 198.298 114.019 197.62 115.291C196.856 116.563 195.754 117.623 194.312 118.472C192.785 119.32 190.962 119.744 188.841 119.744Z" fill="#0E2082"/>
<circle cx="235.896" cy="66.2628" r="23.8546" fill="#F8982F"/>
<path d="M269.716 106L305.869 31.7856H316.259L352.094 106H342.871L316.471 51.5054C315.553 49.385 314.775 47.6887 314.139 46.4165C313.574 45.1442 313.043 44.0487 312.549 43.1298C312.054 42.211 311.559 41.1861 311.064 40.0552C310.64 38.9243 310.146 37.4754 309.58 35.7084L312.019 35.6024C311.241 37.6521 310.57 39.3131 310.004 40.5853C309.509 41.7869 309.015 42.9178 308.52 43.978C308.025 44.9675 307.46 46.0631 306.824 47.2646C306.258 48.4662 305.516 50.0565 304.597 52.0355L278.41 106H269.716ZM284.665 86.5982L288.058 78.5407H333.435L334.919 86.5982H284.665ZM358.651 106V97.6244H378.053V40.1612H358.651V31.7856H405.724V40.1612H386.322V97.6244H405.724V106H358.651Z" fill="#0E2082"/>
</svg>
