<svg width="1440" height="1024" viewBox="0 0 1440 1024" fill="none" xmlns="http://www.w3.org/2000/svg">
<g clip-path="url(#clip0_28_119)">
<path d="M325.5 0.5C531.16 278.18 658.41 321.78 738.5 303.5C823.55 284.09 862.01 193.39 918.5 209.5C1001.02 233.03 954.68 436.77 1063.5 534.5C1120.1 585.33 1226.46 614.48 1439.5 550.5V0.5H325.5Z" fill="#0E2082"/>
<path d="M151 671C287.97 671 399 782.03 399 919C399 956.53 390.65 992.11 375.72 1024H448.05C459.66 991.16 466 955.82 466 919C466 745.03 324.97 604 151 604C96.29 604 44.84 617.96 0 642.5V722.28C41.82 690.13 94.17 671 151 671Z" fill="#0E2082"/>
<path d="M327.88 1024C342.65 995.39 351 962.92 351 928.5C351 813.35 257.65 720 142.5 720C87.39 720 37.28 741.39 0 776.31V1024H327.88Z" fill="#0E2082"/>
</g>
<defs>
<clipPath id="clip0_28_119">
<rect width="1440" height="1024" fill="white"/>
</clipPath>
</defs>
</svg>
