<svg width="161" height="50" viewBox="0 0 161 50" fill="none" xmlns="http://www.w3.org/2000/svg">
<path d="M0 30V1.68H1.44V30H0ZM2.88 30V1.68H7.2V30H2.88ZM11.52 30V1.68H14.4V30H11.52ZM4.368 34.176H5.568L10.224 42.432V34.176H11.616V34.32C11.52 34.384 11.472 34.464 11.472 34.56C11.44 34.624 11.424 34.768 11.424 34.992V45.312H10.464L5.52 36.576V45.312H4.368V34.176ZM15.8438 30V1.68H17.2838V30H15.8438ZM21.6038 30V1.68H24.4838V30H21.6038ZM25.9238 30V1.68H27.3638V30H25.9238ZM20.3558 34.176H27.1718V35.28H21.5078V38.928H26.2118V40.08H21.5078V44.208H27.1238V45.312H20.3558V34.176ZM31.6875 30V1.68H33.1275V30H31.6875ZM37.4475 30V1.68H40.3275V30H37.4475ZM41.7675 30V1.68H43.2075V30H41.7675ZM36.1995 34.176H43.0155V35.28H37.3515V38.928H42.0555V40.08H37.3515V44.208H42.9675V45.312H36.1995V34.176ZM47.5312 30V1.68H48.9713V30H47.5312ZM50.4113 30V1.68H53.2913V30H50.4113ZM57.6113 30V1.68H59.0513V30H57.6113ZM51.9473 34.176H54.5393C55.4673 34.176 56.1873 34.304 56.6993 34.56C57.2433 34.816 57.7073 35.2 58.0913 35.712C58.8273 36.672 59.1953 38.032 59.1953 39.792C59.1313 41.616 58.7153 42.992 57.9473 43.92C57.1793 44.88 55.9793 45.344 54.3473 45.312H51.9473V34.176ZM54.2513 44.352C56.7153 44.352 57.9473 42.864 57.9473 39.888C57.9473 38.384 57.6753 37.232 57.1313 36.432C56.5553 35.632 55.6593 35.232 54.4433 35.232H53.1473V44.352H54.2513ZM63.375 30V1.68H66.255V30H63.375ZM67.695 30V1.68H72.015V30H67.695ZM73.455 30V1.68H74.895V30H73.455ZM71.247 45.504C69.807 45.504 68.639 45.024 67.743 44.064L68.415 42.96L68.463 42.816L68.607 42.864C68.607 42.896 68.623 42.96 68.655 43.056C68.655 43.12 68.687 43.2 68.751 43.296C68.783 43.36 68.847 43.424 68.943 43.488C69.615 44.064 70.447 44.352 71.439 44.352C72.079 44.352 72.623 44.176 73.071 43.824C73.519 43.44 73.743 42.992 73.743 42.48C73.743 42.128 73.663 41.824 73.503 41.568C73.375 41.344 73.135 41.12 72.783 40.896C72.431 40.672 71.887 40.4 71.151 40.08C70.063 39.664 69.279 39.184 68.799 38.64C68.351 38.096 68.127 37.488 68.127 36.816C68.127 35.984 68.431 35.312 69.039 34.8C69.647 34.288 70.463 34.032 71.487 34.032C72.095 34.032 72.671 34.16 73.215 34.416C73.727 34.672 74.191 35.008 74.607 35.424L73.791 36.528L73.695 36.432C73.695 36.4 73.679 36.352 73.647 36.288C73.647 36.192 73.615 36.112 73.551 36.048C73.519 35.952 73.455 35.872 73.359 35.808C73.103 35.552 72.799 35.36 72.447 35.232C72.127 35.136 71.743 35.088 71.295 35.088C70.719 35.088 70.271 35.248 69.951 35.568C69.599 35.888 69.423 36.272 69.423 36.72C69.423 37.072 69.487 37.376 69.615 37.632C69.775 37.888 70.047 38.128 70.431 38.352C70.815 38.608 71.391 38.88 72.159 39.168C73.215 39.616 73.951 40.064 74.367 40.512C74.751 40.992 74.943 41.584 74.943 42.288C74.943 42.832 74.815 43.344 74.559 43.824C74.271 44.304 73.855 44.704 73.311 45.024C72.735 45.344 72.047 45.504 71.247 45.504Z" fill="#0E2082"/>
<circle cx="89" cy="25" r="9" fill="#F8982F"/>
<path d="M101.76 40L115.4 12H119.32L132.84 40H129.36L119.4 19.44C119.053 18.64 118.76 18 118.52 17.52C118.307 17.04 118.107 16.6267 117.92 16.28C117.733 15.9333 117.547 15.5467 117.36 15.12C117.2 14.6933 117.013 14.1467 116.8 13.48L117.72 13.44C117.427 14.2133 117.173 14.84 116.96 15.32C116.773 15.7733 116.587 16.2 116.4 16.6C116.213 16.9733 116 17.3867 115.76 17.84C115.547 18.2933 115.267 18.8933 114.92 19.64L105.04 40H101.76ZM107.4 32.68L108.68 29.64H125.8L126.36 32.68H107.4ZM135.314 40V36.84H142.634V15.16H135.314V12H153.074V15.16H145.754V36.84H153.074V40H135.314Z" fill="#0E2082"/>
</svg>
