<?xml version="1.0" encoding="UTF-8" standalone="no"?>
<svg
   xmlns:dc="http://purl.org/dc/elements/1.1/"
   xmlns:cc="http://creativecommons.org/ns#"
   xmlns:rdf="http://www.w3.org/1999/02/22-rdf-syntax-ns#"
   xmlns:svg="http://www.w3.org/2000/svg"
   xmlns="http://www.w3.org/2000/svg"
   xmlns:sodipodi="http://sodipodi.sourceforge.net/DTD/sodipodi-0.dtd"
   xmlns:inkscape="http://www.inkscape.org/namespaces/inkscape"
   version="1.0"
   width="473.25003pt"
   height="118.50001pt"
   viewBox="0 0 473.25003 118.50001"
   preserveAspectRatio="xMidYMid meet"
   id="svg38"
   sodipodi:docname="Micro-Star_International_logo.svg"
   inkscape:version="0.92.5 (2060ec1f9f, 2020-04-08)">
  <metadata
     id="metadata44">
    <rdf:RDF>
      <cc:Work
         rdf:about="">
        <dc:format>image/svg+xml</dc:format>
        <dc:type
           rdf:resource="http://purl.org/dc/dcmitype/StillImage" />
        <dc:title></dc:title>
      </cc:Work>
    </rdf:RDF>
  </metadata>
  <defs
     id="defs42" />
  <sodipodi:namedview
     pagecolor="#ffffff"
     bordercolor="#666666"
     borderopacity="1"
     objecttolerance="10"
     gridtolerance="10"
     guidetolerance="10"
     inkscape:pageopacity="0"
     inkscape:pageshadow="2"
     inkscape:window-width="1920"
     inkscape:window-height="1017"
     id="namedview40"
     showgrid="false"
     inkscape:pagecheckerboard="true"
     fit-margin-top="0"
     fit-margin-left="0"
     fit-margin-right="0"
     fit-margin-bottom="0"
     inkscape:zoom="0.28173786"
     inkscape:cx="375.57738"
     inkscape:cy="698.51226"
     inkscape:window-x="1912"
     inkscape:window-y="70"
     inkscape:window-maximized="1"
     inkscape:current-layer="svg38" />
  <g
     transform="matrix(0.0591783,0,0,-0.05881442,-0.1171721,294.35513)"
     id="g36"
     style="fill:#000000;stroke:none">
    <path
       d="m 5783,5000 c -317,-17 -524,-75 -763,-216 -333,-196 -418,-530 -188,-739 49,-43 111,-80 292,-172 272,-137 339,-177 396,-239 41,-45 42,-47 38,-105 -5,-75 -43,-130 -113,-170 -81,-45 -155,-60 -330,-66 -222,-8 -417,8 -775,60 -10,1 -29,-36 -61,-123 -26,-69 -48,-130 -48,-136 -2,-21 299,-66 564,-85 210,-15 599,-6 743,16 365,57 711,256 812,469 88,186 54,356 -96,479 -37,30 -148,93 -294,167 -254,129 -361,196 -397,249 -29,43 -30,108 -3,160 69,136 259,183 657,161 170,-9 398,-33 523,-55 l 35,-7 44,124 c 24,68 46,128 48,135 6,15 -8,19 -152,43 -256,44 -647,65 -932,50 z"
       id="path28"
       inkscape:connector-curvature="0" />
    <path
       d="M 365,4006 C 167,3457 3,3005 2,3000 c -2,-6 146,-10 391,-10 h 394 l 193,531 c 228,625 243,655 427,829 130,123 273,182 443,184 99,1 151,-19 182,-68 16,-26 18,-43 14,-101 -4,-60 -37,-161 -234,-700 -126,-346 -232,-640 -236,-652 l -7,-23 h 390 c 369,0 391,1 400,18 6,10 91,242 191,516 99,273 193,523 209,554 66,131 251,327 361,382 144,72 342,97 426,53 56,-30 78,-78 71,-152 -3,-39 -77,-254 -241,-704 -130,-356 -236,-649 -236,-652 0,-3 177,-5 393,-5 h 393 l 267,725 c 228,619 268,736 273,798 19,226 -107,387 -356,454 -101,27 -380,24 -519,-6 -208,-44 -423,-128 -625,-244 l -79,-45 -28,58 c -62,131 -208,223 -396,250 -316,45 -720,-57 -1099,-279 l -51,-29 -26,58 c -49,105 -180,202 -319,235 -35,8 -103,17 -153,21 l -90,6 z"
       id="path30"
       inkscape:connector-curvature="0" />
    <path
       d="m 7730,4989 c -144,-10 -348,-35 -463,-57 l -89,-17 -50,-139 c -27,-76 -47,-140 -45,-142 2,-2 56,5 120,16 152,26 366,48 548,56 l 147,7 10,31 c 5,17 28,82 51,144 l 40,112 -77,-1 c -42,-1 -129,-6 -192,-10 z"
       id="path32"
       inkscape:connector-curvature="0" />
    <path
       d="m 7615,4503 c -219,-17 -323,-28 -454,-49 -85,-13 -156,-26 -158,-28 -6,-6 -513,-1407 -513,-1418 0,-4 177,-8 393,-8 h 392 l 270,746 c 149,411 272,751 273,755 3,8 -113,10 -203,2 z"
       id="path34"
       inkscape:connector-curvature="0" />
  </g>
</svg>
