<?xml version="1.0" encoding="UTF-8" standalone="no"?>
<svg width="721px" height="117px" viewBox="0 0 721 117" version="1.1" xmlns="http://www.w3.org/2000/svg" xmlns:xlink="http://www.w3.org/1999/xlink">
    <!-- Generator: Sketch 3.6.1 (26313) - http://www.bohemiancoding.com/sketch -->
    <title>ouedkniss-small-grey</title>
    <desc>Created with Sketch.</desc>
    <defs></defs>
    <g stroke="none" stroke-width="1" fill="none" fill-rule="evenodd">
        <g transform="translate(-5393.000000, -334.000000)">
            <g transform="translate(4647.000000, 330.000000)">
                <g transform="translate(743.000000, 0.000000)">
                    <g transform="translate(3.000000, 4.000000)">
                        <g transform="translate(357.121202, 0.000000)" fill="#4285F4">
                            <path d="M22.2829776,72.3583902 L58.0243073,31.1456809 L60.5534263,31.1456809 L86.2016698,31.1456809 L47.1783862,73.1532078 L86.2016698,116.998003 L56.3081127,116.998003 L22.2829776,75.3040092 L22.2829776,117 L-2.84217094e-13,117 L-2.84217094e-13,0 L22.2829776,0 L22.2829776,72.3583902 L22.2829776,72.3583902 L22.2829776,72.3583902 L22.2829776,72.3583902 Z"></path>
                            <path d="M158.458005,38.0928334 C163.648023,42.9697612 166.246077,51.0531884 166.246077,62.3431158 L166.246077,117 L144.884741,117 L144.884741,65.134515 C144.884741,58.691436 143.948304,54.5083474 142.079492,52.593271 C140.204587,50.6781945 136.458836,49.7156429 130.83615,49.7156429 L113.720268,49.7156429 L113.720268,117 L92.3589318,117 L92.3609621,30.7894737 L132.479485,30.7894737 C144.604419,30.7894737 153.263928,33.2259322 158.458005,38.0928334 L158.458005,38.0928334 L158.458005,38.0928334 L158.458005,38.0928334 L158.458005,38.0928334 Z"></path>
                            <path d="M181.639233,24.631579 C176.538389,24.631579 172.403339,20.5316697 172.403339,15.3947368 L172.403339,15.3947368 C172.403339,10.2933698 176.502827,6.15789474 181.639233,6.15789474 L181.639233,6.15789474 C186.740075,6.15789474 190.875125,10.257804 190.875125,15.3947368 L190.875125,15.3947368 C190.875125,20.4961039 186.775638,24.631579 181.639233,24.631579 L181.639233,24.631579 L181.639233,24.631579 L181.639233,24.631579 L181.639233,24.631579 Z M172.403339,117 L172.403339,40.0155101 C172.403339,34.9201109 176.502827,30.7894737 181.639233,30.7894737 L181.639233,30.7894737 C186.740075,30.7894737 190.875125,34.9475866 190.875125,40.0155101 L190.875125,117 L172.403339,117 L172.403339,117 L172.403339,117 L172.403339,117 Z"></path>
                            <path d="M253.164661,97.0160994 C255.018699,95.688519 255.947787,93.5728122 255.947787,90.6549426 C255.947787,87.7450938 255.006286,85.6133442 253.131554,84.2616984 C251.248546,82.9060422 248.301945,82.2322248 244.28762,82.2322248 L225.532028,82.2322248 C214.380894,82.2322248 206.836448,80.4433998 202.919375,76.8677556 C198.996097,73.2981276 197.032387,66.9530136 197.032387,57.8324138 C197.032387,48.5493755 199.403738,41.7229634 204.144366,37.3491665 C208.880855,32.9793802 216.208034,30.7894737 226.142455,30.7894737 L272.832785,30.7894737 L272.832785,48.7900246 L234.458733,48.7900246 C228.19928,48.7900246 224.141501,49.3675822 222.254352,50.5146764 C220.367207,51.6657812 219.438117,53.7072874 219.438117,56.6552387 C219.438117,59.3184218 220.265814,61.285728 221.91086,62.5431192 C223.568322,63.8025156 226.167285,64.4261982 229.726379,64.4261982 L249.396571,64.4261982 C258.397768,64.4261982 265.263503,66.6201156 269.987582,71.0059452 C274.705442,75.3957852 277.076795,81.738894 277.076795,90.0332652 C277.076795,98.0127882 274.976516,104.502292 270.792515,109.49977 C266.589887,114.50126 261.189175,117 254.582088,117 L206.901896,117 L201.885966,117 L197.032387,117 L197.032387,99.001452 L244.281413,99.0014544 C248.349541,99.0014544 251.308555,98.335659 253.164661,97.0160994 L253.164661,97.0160994 L253.164661,97.0160994 Z"></path>
                            <path d="M339.377506,97.0160994 C341.229574,95.688519 342.158711,93.5728122 342.158711,90.6549426 C342.158711,87.7450938 341.225436,85.6133442 339.344399,84.2616984 C337.46543,82.9060422 334.518682,82.2322248 330.493802,82.2322248 L311.74138,82.2322248 C300.581392,82.2322248 293.046904,80.4433998 289.123423,76.8677556 C285.20201,73.2981276 283.234057,66.9530136 283.234057,57.8324138 C283.234057,48.5493755 285.603464,41.7229634 290.344334,37.3491665 C295.081066,32.9793802 302.42104,30.7894737 312.353905,30.7894737 L359.042508,30.7894737 L359.042508,48.7900246 L320.662335,48.7900246 C314.410837,48.7900246 310.348712,49.3675822 308.467675,50.5146764 C306.580431,51.6657812 305.638875,53.7072874 305.638875,56.6552387 C305.638875,59.3184218 306.464545,61.285728 308.124161,62.5431192 C309.773433,63.8025156 312.380812,64.4261982 315.933878,64.4261982 L335.600949,64.4261982 C344.600539,64.4261982 351.468701,66.6201156 356.188882,71.0059452 C360.921477,75.3957852 363.278464,81.738894 363.278464,90.0332652 C363.278464,98.0127882 361.184281,104.502292 356.993858,109.49977 C352.80136,114.50126 347.398294,117 340.786731,117 L283.234057,117 L283.234057,99.001452 L330.489665,99.0014544 C334.560064,99.0014544 337.525445,98.335659 339.377506,97.0160994 L339.377506,97.0160994 L339.377506,97.0160994 Z"></path>
                        </g>
                        <g fill="#FBBC05">
                            <path d="M0,57.2801311 C0,37.9597869 4.31699045,23.5802951 12.9509714,14.155082 C21.5830148,4.71836066 34.7258095,0 52.3696672,0 C70.162721,0 83.3268291,4.77206558 91.8639295,14.3027705 C100.399093,23.8411475 104.673456,38.5428689 104.673456,58.4271147 C104.673456,78.3056064 100.399093,93.04377 91.8639295,102.626263 C83.3268291,112.204918 70.162721,117 52.3696672,117 C34.3906033,117 21.1664291,112.181902 12.70102,102.547623 C4.23367331,92.9152626 0,77.8222626 0,57.2801311 L0,57.2801311 L0,57.2801311 L0,57.2801311 L0,57.2801311 L0,57.2801311 Z M52.3987315,18.4736842 C42.9373917,18.4736842 35.8631854,21.704253 31.179987,28.1653904 C26.4929135,34.6304486 24.1561582,44.402527 24.1561582,57.4835861 C24.1561582,71.6545704 26.4270347,82.0382616 30.9668499,88.632699 C35.5105407,95.2251762 42.654501,98.5263156 52.4006691,98.5263156 C62.0092664,98.5263156 69.1261007,95.2526208 73.7608586,88.7130714 C78.397555,82.173522 80.7168715,72.1034778 80.7168715,58.5029405 C80.7168715,44.8475146 78.397555,34.7637487 73.7608586,28.2438024 C69.1241635,21.7316971 62.0073285,18.4736842 52.3987315,18.4736842 L52.3987315,18.4736842 L52.3987315,18.4736842 L52.3987315,18.4736842 L52.3987315,18.4736842 L52.3987315,18.4736842 Z"></path>
                            <path d="M118.742257,109.488088 C113.46722,104.474798 110.830718,96.4575456 110.830718,85.4242992 L110.830718,30.7894737 L132.120062,30.7894737 L132.120062,83.5834194 C132.120062,86.430885 132.349968,88.8064578 132.808549,90.7125642 C133.277169,92.6603958 133.984584,94.1179836 134.929483,95.0879154 C136.80921,97.0070022 140.544254,97.9655436 146.146821,97.9655436 L163.322734,97.9655436 L163.322734,30.7894737 L184.717864,30.7894737 L184.717864,117 L144.423736,117 C132.57372,117 124.01526,114.493355 118.742257,109.488088 L118.742257,109.488088 L118.742257,109.488088 L118.742257,109.488088 Z"></path>
                            <path d="M190.875125,73.935846 C190.875125,59.7642797 194.502709,49.0318303 201.762158,41.7304759 C209.013046,34.4351374 219.66466,30.7894737 233.704159,30.7894737 L264.762271,30.7894737 L264.762271,48.7891877 L259.254907,48.7891877 C251.641579,48.7891874 236.78172,48.7891871 236.78172,48.7891871 C228.627681,48.7891871 223.146712,49.9562808 220.332392,52.2924737 C217.520212,54.6226503 216.002833,58.84384 215.797377,64.942005 L261.781726,64.9420032 L261.781726,82.9477362 L215.797377,82.9477344 C216.002833,89.1200958 217.413204,93.3432912 220.015647,95.605287 C222.618091,97.8652776 228.152564,98.99427 236.621207,98.99427 L264.762271,98.9942694 L264.762271,101.244022 L264.762271,116.995992 L233.704159,117 C219.609015,116.99599 208.948841,113.360351 201.719354,106.091083 C194.487729,98.8178028 190.875125,88.0993902 190.875125,73.935846 L190.875125,73.935846 L190.875125,73.935846 L190.875125,73.935846 Z"></path>
                            <path d="M310.168694,117 C297.830352,117 288.203734,113.129756 281.290863,105.379282 C274.373945,97.6407906 270.919533,86.844846 270.919533,72.9994368 C270.919533,67.3238778 271.635913,62.1116286 273.082841,57.3646884 C274.523697,52.6197448 276.711288,48.2821955 279.651686,44.3500436 C283.128358,39.6350555 287.31939,36.2500894 292.220726,34.2071278 C297.118018,32.1681602 303.575562,31.1496749 311.58729,31.1496749 L329.784167,31.1496749 L329.784165,0 L350.963941,0 L350.963941,117 L310.168694,117 L310.168694,117 L310.168694,117 L310.168694,117 Z M330.307319,99.0301212 L330.307319,49.6301213 L316.709158,49.6301213 C307.593673,49.6301213 301.12704,51.5739723 297.304971,55.4556311 C293.485046,59.3372897 291.576154,65.801349 291.576154,74.8498242 C291.576154,83.6303898 293.324181,89.8587708 296.826672,93.5329512 C300.333456,97.193031 306.353966,99.0301212 314.894642,99.0301212 L330.307319,99.0301212 L330.307319,99.0301212 L330.307319,99.0301212 L330.307319,99.0301212 L330.307319,99.0301212 Z"></path>
                        </g>
                    </g>
                </g>
            </g>
        </g>
    </g>
</svg>